<?xml version="1.0" standalone="no"?>
<!DOCTYPE svg PUBLIC "-//W3C//DTD SVG 20010904//EN"
 "http://www.w3.org/TR/2001/REC-SVG-20010904/DTD/svg10.dtd">
<svg version="1.0" xmlns="http://www.w3.org/2000/svg"
 width="565.000000pt" height="441.000000pt" viewBox="0 0 565.000000 441.000000"
 preserveAspectRatio="xMidYMid meet">

<g transform="translate(0.000000,441.000000) scale(0.100000,-0.100000)"
fill="#000000" stroke="none">
<path d="M2278 3633 c-9 -10 -24 -36 -35 -58 -39 -78 -48 -135 -48 -285 1
-143 11 -223 55 -437 19 -92 19 -93 -1 -170 -104 -400 -359 -890 -515 -990
-19 -12 -18 -13 1 -28 13 -11 31 -15 53 -11 17 2 32 1 32 -5 0 -41 124 64 194
166 114 166 243 437 291 613 14 53 28 55 38 5 4 -21 26 -109 49 -197 39 -149
41 -159 24 -171 -10 -7 -83 -69 -164 -138 -279 -238 -791 -655 -863 -704 -26
-18 -50 -37 -54 -43 -10 -16 25 -77 60 -105 45 -34 67 -32 162 15 125 61 288
98 693 155 32 5 179 20 428 45 52 5 167 10 255 11 187 1 227 9 227 45 0 34
-39 70 -91 84 -56 15 -119 47 -119 61 0 19 28 64 55 89 15 14 46 54 70 90 23
36 69 105 101 154 32 48 70 107 84 129 34 55 46 56 53 5 16 -117 29 -151 74
-199 98 -105 233 -106 337 -3 52 53 53 53 82 37 45 -23 132 -28 176 -10 77 32
134 91 220 232 55 89 76 139 93 219 19 91 19 93 -7 99 -34 9 -76 -20 -102 -71
-61 -117 -248 -342 -285 -342 -5 0 -24 14 -42 31 -45 42 -61 49 -115 49 -44 0
-50 -3 -88 -47 -23 -26 -61 -67 -85 -91 -58 -59 -67 -49 -81 98 -22 235 -19
222 -56 256 -34 33 -97 51 -131 39 -20 -7 -56 -51 -115 -145 -88 -139 -194
-298 -237 -355 -56 -76 -131 -155 -148 -155 -7 0 -20 11 -28 24 -15 22 -15 32
-1 104 14 76 97 283 137 342 9 14 37 57 62 95 25 39 68 97 96 130 69 80 67
109 -9 154 -51 30 -89 27 -141 -12 -24 -19 -84 -60 -134 -92 -49 -32 -123 -85
-163 -118 -62 -50 -76 -57 -87 -46 -7 8 -34 104 -59 214 -26 110 -53 228 -61
262 -19 81 -19 111 4 208 50 211 62 279 70 390 9 126 2 262 -17 306 -27 65
-158 113 -194 72z m111 -240 c-2 -44 -29 -276 -35 -296 -3 -10 -9 -16 -12 -12
-9 9 -3 232 8 275 4 19 11 48 15 65 5 24 8 27 16 13 5 -9 8 -29 8 -45z m371
-1264 c-29 -36 -66 -108 -104 -201 -8 -21 -19 -38 -23 -38 -12 0 -34 64 -35
101 -1 26 11 43 74 104 42 40 84 78 94 83 32 18 29 -6 -6 -49z m-220 -312 c43
-90 48 -108 41 -139 -13 -56 7 -123 51 -173 43 -49 83 -65 165 -65 36 0 57 -5
69 -17 17 -17 7 -19 -202 -45 -120 -14 -294 -31 -386 -37 -92 -6 -238 -21
-325 -32 -202 -27 -197 -27 -201 -8 -2 10 35 49 100 105 56 49 125 112 153
139 81 81 449 372 473 374 7 1 35 -45 62 -102z"/>
</g>
</svg>
