<svg width="412" height="356" xmlns="http://www.w3.org/2000/svg" xmlns:xlink="http://www.w3.org/1999/xlink" xml:space="preserve" overflow="hidden"><defs><clipPath id="clip0"><rect x="434" y="164" width="412" height="356"/></clipPath><clipPath id="clip1"><rect x="435" y="164" width="411" height="356"/></clipPath><clipPath id="clip2"><rect x="435" y="164" width="411" height="356"/></clipPath></defs><g clip-path="url(#clip0)" transform="translate(-434 -164)"><g clip-path="url(#clip1)"><g clip-path="url(#clip2)"><path d="M303.225 483.589C302.027 482.258 300.03 478.797 298.566 475.869 293.375 465.486 292.177 457.899 292.177 437.932 292.31 418.898 293.641 408.249 299.498 379.763 302.027 367.517 302.027 367.384 299.365 357.135 285.521 303.89 251.578 238.667 230.813 225.355 228.284 223.758 228.417 223.625 230.946 221.628 232.677 220.164 235.073 219.632 238.001 220.164 240.264 220.43 242.26 220.297 242.26 219.499 242.26 214.041 258.766 228.018 268.084 241.595 283.258 263.691 300.43 299.764 306.819 323.191 308.682 330.246 310.546 330.513 311.877 323.857 312.41 321.062 315.338 309.348 318.399 297.634 323.591 277.801 323.857 276.47 321.594 274.872 320.263 273.941 310.546 265.688 299.764 256.503 262.626 224.823 194.474 169.316 184.89 162.794 181.429 160.398 178.234 157.869 177.702 157.07 176.371 154.94 181.03 146.82 185.689 143.093 191.679 138.568 194.607 138.834 207.253 145.09 223.891 153.21 245.588 158.135 299.498 165.722 303.757 166.388 323.325 168.384 356.469 171.712 363.391 172.378 378.698 173.043 390.412 173.176 415.304 173.309 420.628 174.374 420.628 179.166 420.628 183.692 415.437 188.484 408.515 190.348 401.061 192.344 392.675 196.604 392.675 198.467 392.675 200.996 396.402 206.986 399.996 210.314 401.993 212.178 406.119 217.502 409.314 222.294 412.375 227.086 418.498 236.271 422.758 242.793 427.017 249.182 432.076 257.036 433.939 259.964 438.465 267.285 440.062 267.418 440.994 260.63 443.124 245.056 444.854 240.53 450.844 234.141 463.889 220.164 481.859 220.031 495.702 233.741 502.624 240.796 502.757 240.796 506.617 238.667 512.607 235.605 524.188 234.939 530.045 237.335 540.294 241.595 547.881 249.448 559.329 268.217 566.65 280.064 569.445 286.719 571.708 297.368 574.237 309.481 574.237 309.747 570.776 310.546 566.251 311.744 560.66 307.884 557.199 301.095 549.079 285.521 524.188 255.571 519.263 255.571 518.597 255.571 516.068 257.435 513.672 259.698 507.682 265.289 505.552 266.22 498.364 266.22 492.508 266.22 491.709 265.821 486.651 259.964 483.589 256.503 478.531 251.046 475.336 247.851 467.616 239.998 466.418 241.329 464.554 260.896 461.626 292.177 462.025 290.446 457.1 294.972 452.575 299.365 444.189 301.761 439.663 300.163 437.001 299.232 432.209 293.375 424.355 280.862 412.641 262.36 398.532 241.196 392.808 233.608 385.354 223.492 375.371 212.976 373.108 212.976 372.176 212.976 370.446 214.44 369.381 216.171 367.384 219.099 367.384 220.43 369.248 230.014 371.111 240.131 382.159 267.685 387.484 275.538 388.682 277.402 392.409 283.125 395.736 288.183 399.064 293.375 404.788 301.095 408.515 305.488 417.7 316.137 417.433 319.997 407.317 325.987 400.528 329.98 395.47 329.581 388.549 324.389 385.354 321.86 377.367 316.403 370.712 312.143 364.189 307.884 354.339 300.829 349.015 296.436 340.762 289.781 338.898 288.849 337.434 290.313 336.502 291.378 332.908 304.157 329.581 318.799 326.12 333.441 322.526 349.148 321.461 353.674 318.932 364.456 318.932 368.449 321.993 381.361 328.649 409.447 330.246 418.498 331.311 433.274 332.509 450.045 331.577 468.148 329.048 474.005 325.454 482.657 308.017 489.047 303.225 483.589ZM318 451.643C317.734 445.786 314.14 414.904 313.341 412.242 312.942 410.911 312.143 410.112 311.744 410.645 310.546 411.843 311.345 441.526 312.809 447.25 313.341 449.779 314.273 453.639 314.806 455.902 315.471 459.097 315.87 459.496 316.935 457.633 317.601 456.435 318 453.772 318 451.643ZM367.384 283.392C363.524 278.6 358.599 269.016 353.541 256.636 352.476 253.841 351.011 251.578 350.479 251.578 348.882 251.578 345.953 260.097 345.82 265.022 345.687 268.483 347.284 270.746 355.67 278.866 361.261 284.19 366.852 289.248 368.183 289.914 372.442 292.31 372.043 289.115 367.384 283.392ZM338.1 241.861C343.824 229.881 344.489 227.485 343.557 223.359 341.827 215.905 344.489 206.986 350.346 200.331 356.07 193.808 361.394 191.679 372.309 191.679 377.101 191.679 379.896 191.013 381.494 189.416 383.757 187.153 382.425 186.887 354.605 183.426 338.632 181.562 315.471 179.299 303.225 178.501 290.979 177.702 271.545 175.705 259.964 174.241 233.076 170.647 233.741 170.647 233.209 173.176 232.943 174.507 237.868 179.699 246.52 187.153 253.974 193.675 263.159 202.061 266.886 205.655 277.668 216.437 326.652 255.172 329.847 255.438 330.779 255.571 334.506 249.448 338.1 241.861Z" fill="#FFFFFF" fill-rule="nonzero" fill-opacity="1" transform="matrix(1 0 0 -1.00135 264.287 653.973)"/></g></g></g></svg>